<mxfile host="app.diagrams.net" modified="2023-06-05T15:17:15.801Z" agent="Mozilla/5.0 (Windows NT 10.0; Win64; x64) AppleWebKit/537.36 (KHTML, like Gecko) Chrome/114.0.0.0 Safari/537.36" etag="HsxdKFExmR5_CkBqYXYr" version="21.2.3" type="github">
  <diagram name="PÃ¡gina-1" id="f85kjwag2deSVZNKirHi">
    <mxGraphModel dx="880" dy="452" grid="1" gridSize="10" guides="1" tooltips="1" connect="1" arrows="1" fold="1" page="1" pageScale="1" pageWidth="827" pageHeight="1169" math="0" shadow="0">
      <root>
        <mxCell id="0" />
        <mxCell id="1" parent="0" />
        <mxCell id="-dR91kJPeQA6Vhihn7qK-1" value="Client" style="rounded=0;whiteSpace=wrap;html=1;fontSize=16;" parent="1" vertex="1">
          <mxGeometry x="110" y="375" width="120" height="60" as="geometry" />
        </mxCell>
        <mxCell id="-dR91kJPeQA6Vhihn7qK-3" value="" style="whiteSpace=wrap;html=1;aspect=fixed;fillColor=none;fontColor=#333333;strokeColor=#E1D5E7;dashed=1;strokeWidth=3;" parent="1" vertex="1">
          <mxGeometry x="365" y="255" width="290" height="290" as="geometry" />
        </mxCell>
        <mxCell id="_Jd4zdrocWhrOCXHvxt0-14" style="edgeStyle=orthogonalEdgeStyle;rounded=0;orthogonalLoop=1;jettySize=auto;html=1;entryX=0;entryY=0.3;entryDx=0;entryDy=0;entryPerimeter=0;exitX=0.75;exitY=1;exitDx=0;exitDy=0;" edge="1" parent="1" source="-dR91kJPeQA6Vhihn7qK-2" target="_Jd4zdrocWhrOCXHvxt0-4">
          <mxGeometry relative="1" as="geometry" />
        </mxCell>
        <mxCell id="_Jd4zdrocWhrOCXHvxt0-16" style="edgeStyle=orthogonalEdgeStyle;rounded=0;orthogonalLoop=1;jettySize=auto;html=1;exitX=0.75;exitY=0;exitDx=0;exitDy=0;entryX=0.012;entryY=0.64;entryDx=0;entryDy=0;entryPerimeter=0;" edge="1" parent="1" source="-dR91kJPeQA6Vhihn7qK-2" target="_Jd4zdrocWhrOCXHvxt0-3">
          <mxGeometry relative="1" as="geometry">
            <mxPoint x="620" y="322" as="targetPoint" />
            <Array as="points">
              <mxPoint x="524" y="342" />
            </Array>
          </mxGeometry>
        </mxCell>
        <mxCell id="-dR91kJPeQA6Vhihn7qK-2" value="DispatcherServlet" style="rounded=0;whiteSpace=wrap;html=1;fontSize=16;" parent="1" vertex="1">
          <mxGeometry x="414" y="377.5" width="146" height="55" as="geometry" />
        </mxCell>
        <mxCell id="-dR91kJPeQA6Vhihn7qK-4" value="" style="endArrow=classic;html=1;rounded=0;exitX=1;exitY=0.25;exitDx=0;exitDy=0;entryX=0;entryY=0.25;entryDx=0;entryDy=0;fontSize=16;" parent="1" source="-dR91kJPeQA6Vhihn7qK-1" target="-dR91kJPeQA6Vhihn7qK-2" edge="1">
          <mxGeometry width="50" height="50" relative="1" as="geometry">
            <mxPoint x="270" y="405" as="sourcePoint" />
            <mxPoint x="320" y="355" as="targetPoint" />
          </mxGeometry>
        </mxCell>
        <mxCell id="-dR91kJPeQA6Vhihn7qK-5" value="" style="endArrow=none;html=1;rounded=0;exitX=1;exitY=0.25;exitDx=0;exitDy=0;entryX=0;entryY=0.25;entryDx=0;entryDy=0;startArrow=blockThin;startFill=1;endFill=0;fontSize=16;" parent="1" edge="1">
          <mxGeometry width="50" height="50" relative="1" as="geometry">
            <mxPoint x="230" y="425" as="sourcePoint" />
            <mxPoint x="414" y="425" as="targetPoint" />
            <Array as="points">
              <mxPoint x="320" y="425" />
            </Array>
          </mxGeometry>
        </mxCell>
        <mxCell id="-dR91kJPeQA6Vhihn7qK-6" value="Request" style="text;html=1;align=center;verticalAlign=middle;resizable=0;points=[];autosize=1;strokeColor=none;fillColor=none;fontSize=16;" parent="1" vertex="1">
          <mxGeometry x="285" y="353" width="80" height="30" as="geometry" />
        </mxCell>
        <mxCell id="-dR91kJPeQA6Vhihn7qK-7" value="Response" style="text;html=1;align=center;verticalAlign=middle;resizable=0;points=[];autosize=1;strokeColor=none;fillColor=none;fontSize=16;" parent="1" vertex="1">
          <mxGeometry x="275" y="435" width="100" height="30" as="geometry" />
        </mxCell>
        <mxCell id="-dR91kJPeQA6Vhihn7qK-8" value="&lt;b&gt;&lt;font style=&quot;font-size: 23px;&quot;&gt;Backend&lt;/font&gt;&lt;/b&gt;" style="text;html=1;align=center;verticalAlign=middle;resizable=0;points=[];autosize=1;strokeColor=none;fillColor=none;dashed=1;" parent="1" vertex="1">
          <mxGeometry x="380" y="505" width="120" height="40" as="geometry" />
        </mxCell>
        <mxCell id="_Jd4zdrocWhrOCXHvxt0-1" value="&lt;div style=&quot;font-size: 14px;&quot;&gt;&lt;span style=&quot;background-color: initial; font-size: 14px;&quot;&gt;&lt;b style=&quot;font-size: 14px;&quot;&gt;(1)&lt;/b&gt; Client makes&amp;nbsp;&lt;/span&gt;&lt;/div&gt;&lt;div style=&quot;font-size: 14px;&quot;&gt;&lt;span style=&quot;background-color: initial; font-size: 14px;&quot;&gt;a request&lt;/span&gt;&lt;span style=&quot;background-color: initial;&quot;&gt;&amp;nbsp;to the server.&lt;/span&gt;&lt;/div&gt;" style="text;html=1;align=left;verticalAlign=middle;resizable=0;points=[];autosize=1;fillColor=none;strokeColor=none;dashed=1;fontSize=14;" vertex="1" parent="1">
          <mxGeometry x="220" y="270" width="170" height="50" as="geometry" />
        </mxCell>
        <mxCell id="_Jd4zdrocWhrOCXHvxt0-2" value="&lt;b style=&quot;font-size: 14px;&quot;&gt;(2) &lt;/b&gt;The request is received &lt;br style=&quot;font-size: 14px;&quot;&gt;by a dispatcher servlet." style="text;html=1;align=left;verticalAlign=middle;resizable=0;points=[];autosize=1;strokeColor=none;fillColor=none;fontSize=14;" vertex="1" parent="1">
          <mxGeometry x="400" y="190" width="190" height="50" as="geometry" />
        </mxCell>
        <mxCell id="_Jd4zdrocWhrOCXHvxt0-3" value="&lt;b style=&quot;font-size: 14px;&quot;&gt;(3)&lt;/b&gt; Based on the URL, the servlet&lt;br style=&quot;font-size: 14px;&quot;&gt;&amp;nbsp;finds the associated controller action." style="text;html=1;align=left;verticalAlign=middle;resizable=0;points=[];autosize=1;strokeColor=none;fillColor=none;fontSize=14;" vertex="1" parent="1">
          <mxGeometry x="620" y="310" width="260" height="50" as="geometry" />
        </mxCell>
        <mxCell id="_Jd4zdrocWhrOCXHvxt0-4" value="&lt;b style=&quot;font-size: 14px;&quot;&gt;(4)&amp;nbsp;&lt;/b&gt;Based on the controller action, &lt;br style=&quot;font-size: 14px;&quot;&gt;a view is found and rendered &lt;br style=&quot;font-size: 14px;&quot;&gt;as a response." style="text;html=1;align=left;verticalAlign=middle;resizable=0;points=[];autosize=1;strokeColor=none;fillColor=none;fontSize=14;" vertex="1" parent="1">
          <mxGeometry x="620" y="445" width="230" height="60" as="geometry" />
        </mxCell>
        <mxCell id="_Jd4zdrocWhrOCXHvxt0-7" value="" style="endArrow=classic;html=1;rounded=0;entryX=0.1;entryY=-0.1;entryDx=0;entryDy=0;entryPerimeter=0;" edge="1" parent="1" target="-dR91kJPeQA6Vhihn7qK-6">
          <mxGeometry width="50" height="50" relative="1" as="geometry">
            <mxPoint x="285" y="320" as="sourcePoint" />
            <mxPoint x="335" y="270" as="targetPoint" />
          </mxGeometry>
        </mxCell>
        <mxCell id="_Jd4zdrocWhrOCXHvxt0-9" value="" style="endArrow=classic;html=1;rounded=0;entryX=0.5;entryY=0;entryDx=0;entryDy=0;exitX=0.453;exitY=0.98;exitDx=0;exitDy=0;exitPerimeter=0;" edge="1" parent="1" source="_Jd4zdrocWhrOCXHvxt0-2" target="-dR91kJPeQA6Vhihn7qK-2">
          <mxGeometry width="50" height="50" relative="1" as="geometry">
            <mxPoint x="440" y="360" as="sourcePoint" />
            <mxPoint x="490" y="310" as="targetPoint" />
          </mxGeometry>
        </mxCell>
        <mxCell id="_Jd4zdrocWhrOCXHvxt0-17" value="&lt;b&gt;(5)&lt;/b&gt; The response is sent &lt;br style=&quot;font-size: 14px;&quot;&gt;back to the client" style="text;html=1;align=left;verticalAlign=middle;resizable=0;points=[];autosize=1;strokeColor=none;fillColor=none;fontSize=14;" vertex="1" parent="1">
          <mxGeometry x="170" y="520" width="170" height="50" as="geometry" />
        </mxCell>
        <mxCell id="_Jd4zdrocWhrOCXHvxt0-18" value="" style="endArrow=classic;html=1;rounded=0;" edge="1" parent="1">
          <mxGeometry width="50" height="50" relative="1" as="geometry">
            <mxPoint x="275" y="520" as="sourcePoint" />
            <mxPoint x="325" y="470" as="targetPoint" />
          </mxGeometry>
        </mxCell>
      </root>
    </mxGraphModel>
  </diagram>
</mxfile>
